<svg xmlns="http://www.w3.org/2000/svg" viewBox="0 0 60.77 64"><defs><style>.cls-1{fill:#0073b3;}.cls-2{fill:#cfd8dd;}.cls-3{fill:#0090e0;}</style></defs><title>Tool Scissors</title><g id="Layer_2" data-name="Layer 2"><g id="Layer_1-2" data-name="Layer 1"><path class="cls-1" d="M24.15,45a11.51,11.51,0,0,0-2.88-2.86A12,12,0,1,0,24.15,45ZM10.95,56.91a6,6,0,0,1,6.88-9.82,6,6,0,0,1,1.47,8.35A6,6,0,0,1,10.95,56.91Z"/><path class="cls-2" d="M55.68,0a5.09,5.09,0,0,1,4.17,8L39.28,37.38h0l-1.08,1.54-.2.3-2.3,3.28-1.3-.91L30.9,39.14l-.31-.22-1.45-1,.37-.53,1.92-2.75,3-4.22L55.68,0Z"/><path class="cls-1" d="M38,39.22,24.22,58.88,19.3,55.44a6,6,0,0,0,.92-4.8l11.21-16Z"/><path class="cls-3" d="M56.22,45.12a12,12,0,0,0-16.71-3A11.51,11.51,0,0,0,36.63,45a12,12,0,1,0,19.59.09ZM49.83,56.91a6,6,0,0,1-8.35-1.47,6,6,0,0,1,1.47-8.35,6,6,0,0,1,6.88,9.82Z"/><path class="cls-2" d="M31.64,37.91l-1.45,1-.31.22-3.49,2.45-1.3.91-2.3-3.28-.2-.3-1.08-1.54h0L.93,8A5.09,5.09,0,0,1,5.1,0h0L26.39,30.41l3,4.22,1.92,2.75Z"/><path class="cls-3" d="M22.79,39.22,36.56,58.88l4.91-3.44a6,6,0,0,1-.92-4.8l-11.21-16Z"/><circle class="cls-1" cx="30.39" cy="44" r="2"/></g></g></svg>